<mxfile host="Electron" modified="2023-10-08T12:02:12.403Z" agent="Mozilla/5.0 (Windows NT 10.0; Win64; x64) AppleWebKit/537.36 (KHTML, like Gecko) draw.io/21.5.0 Chrome/112.0.5615.204 Electron/24.5.1 Safari/537.36" etag="1Oyik1-1p15lGO5X_Vmo" version="21.5.0" type="device">
  <diagram name="Seite-1" id="Hr5JsexMfQ1nYhN33Mx5">
    <mxGraphModel dx="1434" dy="836" grid="1" gridSize="10" guides="1" tooltips="1" connect="1" arrows="1" fold="1" page="1" pageScale="1" pageWidth="827" pageHeight="1169" math="0" shadow="0">
      <root>
        <mxCell id="0" />
        <mxCell id="1" parent="0" />
        <mxCell id="AUMbeGAlRUcXEW2RN8MC-1" value="Article" style="whiteSpace=wrap;html=1;align=center;" vertex="1" parent="1">
          <mxGeometry x="160" y="260" width="100" height="40" as="geometry" />
        </mxCell>
        <mxCell id="AUMbeGAlRUcXEW2RN8MC-2" value="id" style="ellipse;whiteSpace=wrap;html=1;align=center;fontStyle=4;" vertex="1" parent="1">
          <mxGeometry x="80" y="200" width="100" height="40" as="geometry" />
        </mxCell>
        <mxCell id="AUMbeGAlRUcXEW2RN8MC-3" value="name&lt;br&gt;price" style="ellipse;whiteSpace=wrap;html=1;align=center;" vertex="1" parent="1">
          <mxGeometry x="240" y="200" width="100" height="40" as="geometry" />
        </mxCell>
        <mxCell id="AUMbeGAlRUcXEW2RN8MC-5" value="" style="endArrow=none;html=1;rounded=0;exitX=0.5;exitY=0;exitDx=0;exitDy=0;entryX=0.5;entryY=1;entryDx=0;entryDy=0;" edge="1" parent="1" source="AUMbeGAlRUcXEW2RN8MC-1" target="AUMbeGAlRUcXEW2RN8MC-2">
          <mxGeometry relative="1" as="geometry">
            <mxPoint x="330" y="430" as="sourcePoint" />
            <mxPoint x="490" y="430" as="targetPoint" />
          </mxGeometry>
        </mxCell>
        <mxCell id="AUMbeGAlRUcXEW2RN8MC-6" value="" style="endArrow=none;html=1;rounded=0;exitX=0.5;exitY=1;exitDx=0;exitDy=0;entryX=0.5;entryY=0;entryDx=0;entryDy=0;" edge="1" parent="1" source="AUMbeGAlRUcXEW2RN8MC-3" target="AUMbeGAlRUcXEW2RN8MC-1">
          <mxGeometry relative="1" as="geometry">
            <mxPoint x="220" y="270" as="sourcePoint" />
            <mxPoint x="150" y="210" as="targetPoint" />
          </mxGeometry>
        </mxCell>
      </root>
    </mxGraphModel>
  </diagram>
</mxfile>
